<?xml version="1.0" standalone="no"?>
<!DOCTYPE svg PUBLIC "-//W3C//DTD SVG 20010904//EN"
 "http://www.w3.org/TR/2001/REC-SVG-20010904/DTD/svg10.dtd">
<svg version="1.0" xmlns="http://www.w3.org/2000/svg"
 width="512.000000pt" height="512.000000pt" viewBox="0 0 512.000000 512.000000"
 preserveAspectRatio="xMidYMid meet">

<g transform="translate(0.000000,512.000000) scale(0.100000,-0.100000)"
fill="#000000" stroke="none">
<path d="M3779 4764 c1 -24 7 -44 12 -44 14 0 11 66 -4 78 -9 8 -11 1 -8 -34z"/>
<path d="M3752 4770 c0 -19 2 -27 5 -17 2 9 2 25 0 35 -3 9 -5 1 -5 -18z"/>
<path d="M3742 4700 c0 -19 2 -27 5 -17 2 9 2 25 0 35 -3 9 -5 1 -5 -18z"/>
<path d="M3731 4648 c-1 -23 9 -48 21 -48 7 0 7 4 0 13 -5 6 -12 21 -15 32 -3
15 -5 16 -6 3z"/>
<path d="M3847 4633 c-11 -10 -8 -61 3 -68 6 -4 10 10 10 34 0 42 -2 46 -13
34z"/>
<path d="M3721 4594 c0 -11 3 -14 6 -6 3 7 2 16 -1 19 -3 4 -6 -2 -5 -13z"/>
<path d="M3917 4570 c3 -14 6 -41 5 -60 0 -31 0 -32 8 -10 7 21 15 12 11 -12
0 -5 4 -8 9 -8 14 0 12 8 -16 65 -13 28 -21 39 -17 25z"/>
<path d="M3742 4555 c-11 -23 -15 -26 -23 -14 -5 8 -9 9 -9 2 0 -6 -3 -18 -6
-27 -4 -12 0 -16 15 -16 14 0 21 6 21 19 0 11 5 21 11 23 6 2 10 12 8 23 -3
16 -6 14 -17 -10z"/>
<path d="M3695 4480 c-3 -6 1 -7 9 -4 18 7 21 14 7 14 -6 0 -13 -4 -16 -10z"/>
<path d="M3760 4360 c0 -38 2 -40 30 -40 28 0 30 2 30 40 0 38 -2 40 -30 40
-28 0 -30 -2 -30 -40z"/>
<path d="M3990 4386 c0 -8 4 -17 9 -20 5 -4 7 3 4 14 -6 23 -13 26 -13 6z"/>
<path d="M3666 4371 c-4 -5 -3 -17 1 -27 4 -12 3 -15 -5 -10 -17 10 -15 1 3
-14 14 -12 16 -9 13 23 -2 39 -4 42 -12 28z"/>
<path d="M3647 4233 c-4 -3 -7 -21 -7 -40 0 -26 4 -33 20 -33 17 0 20 7 20 40
0 38 -14 52 -33 33z"/>
<path d="M3601 4198 c-15 -43 -8 -45 12 -3 9 19 13 35 8 35 -5 0 -14 -14 -20
-32z"/>
<path d="M3576 4135 c-9 -26 -7 -32 5 -12 6 10 9 21 6 23 -2 3 -7 -2 -11 -11z"/>
<path d="M4084 4097 c-1 -30 -1 -30 9 -9 6 14 7 26 1 32 -5 5 -9 -4 -10 -23z"/>
<path d="M3551 4074 c-6 -14 -9 -30 -6 -35 4 -5 2 -9 -3 -9 -19 0 -20 -26 -1
-27 15 -1 18 3 15 22 -2 13 2 32 9 42 16 21 19 33 7 33 -5 0 -14 -12 -21 -26z"/>
<path d="M4100 4060 c0 -11 4 -20 9 -20 5 0 7 9 4 20 -3 11 -7 20 -9 20 -2 0
-4 -9 -4 -20z"/>
<path d="M3510 3969 c0 -11 4 -18 10 -14 5 3 7 12 3 20 -7 21 -13 19 -13 -6z"/>
<path d="M4126 3967 c3 -10 9 -15 12 -12 3 3 0 11 -7 18 -10 9 -11 8 -5 -6z"/>
<path d="M4120 3936 c0 -2 7 -7 16 -10 8 -3 12 -2 9 4 -6 10 -25 14 -25 6z"/>
<path d="M3466 3883 c-6 -14 -5 -15 5 -6 7 7 10 15 7 18 -3 3 -9 -2 -12 -12z"/>
<path d="M4150 3860 c0 -11 4 -20 9 -20 5 0 7 9 4 20 -3 11 -7 20 -9 20 -2 0
-4 -9 -4 -20z"/>
<path d="M4160 3811 c0 -6 4 -13 10 -16 6 -3 7 1 4 9 -7 18 -14 21 -14 7z"/>
<path d="M3417 3786 c-4 -10 -3 -15 3 -11 6 3 10 1 10 -6 0 -7 3 -10 6 -6 3 3
2 13 -4 22 -8 16 -9 16 -15 1z"/>
<path d="M3426 3733 c-6 -14 -5 -15 5 -6 7 7 10 15 7 18 -3 3 -9 -2 -12 -12z"/>
<path d="M4182 3725 c0 -16 2 -22 5 -12 2 9 2 23 0 30 -3 6 -5 -1 -5 -18z"/>
<path d="M3386 3723 c-6 -14 -5 -15 5 -6 7 7 10 15 7 18 -3 3 -9 -2 -12 -12z"/>
<path d="M4160 3700 c0 -11 4 -20 9 -20 5 0 7 9 4 20 -3 11 -7 20 -9 20 -2 0
-4 -9 -4 -20z"/>
<path d="M3361 3673 c-10 -26 -10 -27 4 -9 8 11 15 23 15 28 0 15 -7 8 -19
-19z"/>
<path d="M3343 3619 c-2 -23 3 -25 10 -4 4 8 3 16 -1 19 -4 3 -9 -4 -9 -15z"/>
<path d="M3344 3555 c0 -19 3 -32 8 -29 10 6 11 51 1 57 -5 3 -8 -10 -9 -28z"/>
<path d="M3274 3517 c-10 -18 -23 -42 -31 -54 -13 -19 -12 -21 2 -19 18 3 52
46 36 46 -7 0 -7 9 1 25 7 16 14 21 18 14 5 -7 10 -8 14 -1 3 5 -1 12 -9 16
-10 3 -20 -6 -31 -27z m-11 -52 c-3 -9 -8 -14 -10 -11 -3 3 -2 9 2 15 9 16 15
13 8 -4z"/>
<path d="M4223 3400 c0 -25 2 -35 4 -22 2 12 2 32 0 45 -2 12 -4 2 -4 -23z"/>
<path d="M3224 3422 c3 -5 1 -12 -6 -14 -8 -3 -9 -6 -1 -11 6 -4 13 0 17 8 3
8 0 17 -6 21 -6 4 -8 3 -4 -4z"/>
<path d="M3300 3380 c0 -13 7 -20 20 -20 13 0 20 7 20 20 0 13 -7 20 -20 20
-13 0 -20 -7 -20 -20z"/>
<path d="M3197 3363 c4 -10 2 -14 -5 -9 -6 3 -13 2 -17 -4 -3 -5 -1 -10 5 -10
6 0 8 -6 5 -12 -4 -7 2 -2 13 12 20 24 20 40 2 40 -5 0 -6 -7 -3 -17z"/>
<path d="M4232 3310 c0 -19 2 -27 5 -17 2 9 2 25 0 35 -3 9 -5 1 -5 -18z"/>
<path d="M3150 3299 c-12 -8 -11 -9 6 -4 25 6 39 -16 21 -34 -15 -15 -30 -14
-24 2 3 8 -1 14 -8 14 -8 0 -11 -7 -7 -15 3 -10 1 -13 -6 -8 -6 3 -13 3 -16
-2 -8 -14 50 -8 67 7 13 10 14 18 6 32 -11 22 -18 23 -39 8z"/>
<path d="M3104 3222 c4 -7 3 -12 -2 -12 -5 0 -17 -11 -26 -25 -19 -29 -3 -30
26 -2 21 20 23 33 6 43 -7 4 -8 3 -4 -4z"/>
<path d="M4233 3160 c0 -25 2 -35 4 -22 2 12 2 32 0 45 -2 12 -4 2 -4 -23z"/>
<path d="M3044 3138 c-3 -4 -2 -8 3 -8 4 0 1 -5 -7 -10 -9 -6 -10 -10 -3 -10
10 0 43 26 43 34 0 7 -31 2 -36 -6z"/>
<path d="M3010 3075 c0 -8 -4 -15 -10 -15 -5 0 -10 -5 -10 -11 0 -14 18 -2 30
22 7 13 7 19 0 19 -5 0 -10 -7 -10 -15z"/>
<path d="M2976 3015 c4 -8 10 -12 15 -9 14 8 10 24 -6 24 -9 0 -12 -6 -9 -15z"/>
<path d="M2950 2995 c-10 -12 -17 -32 -19 -58 -1 -5 -5 -6 -10 -2 -5 3 -12 1
-15 -4 -7 -10 9 -9 37 4 14 6 17 14 12 32 -4 16 -2 22 5 18 5 -3 10 1 10 9 0
20 -4 20 -20 1z"/>
<path d="M2885 2899 c-3 -4 1 -9 9 -12 8 -3 17 0 19 7 5 13 -21 18 -28 5z"/>
<path d="M2945 2890 c-3 -5 -1 -10 4 -10 6 0 11 5 11 10 0 6 -2 10 -4 10 -3 0
-8 -4 -11 -10z"/>
<path d="M2869 2878 c-6 -21 -5 -38 2 -38 5 0 9 9 9 20 0 16 -7 28 -11 18z"/>
<path d="M2827 2812 c-14 -15 -15 -19 -2 -19 8 0 12 4 9 8 -2 4 4 12 13 18 10
6 13 11 7 11 -6 0 -18 -8 -27 -18z"/>
<path d="M4160 2749 c0 -31 4 -48 10 -44 6 3 10 26 10 51 0 24 -4 44 -10 44
-5 0 -10 -23 -10 -51z"/>
<path d="M2787 2754 c-17 -22 -17 -24 -1 -24 10 0 14 3 11 7 -4 3 -2 12 5 20
6 7 9 15 7 17 -2 2 -12 -7 -22 -20z"/>
<path d="M2725 2670 c-3 -5 -3 -10 1 -10 3 0 -4 -8 -16 -18 -18 -14 -19 -19
-7 -19 9 0 14 4 11 9 -3 4 4 8 15 8 11 0 23 5 27 12 5 7 3 8 -7 3 -12 -8 -12
-6 0 8 12 15 11 17 -2 17 -9 0 -19 -4 -22 -10z"/>
<path d="M2785 2667 c-4 -10 -5 -21 -1 -24 10 -10 18 4 13 24 -4 17 -4 17 -12
0z"/>
<path d="M4180 2660 c0 -11 2 -20 4 -20 2 0 6 9 9 20 3 11 1 20 -4 20 -5 0 -9
-9 -9 -20z"/>
<path d="M2672 2597 c-6 -7 -7 -19 -3 -26 6 -9 10 -5 13 13 6 30 5 31 -10 13z"/>
<path d="M2703 2595 c0 -8 4 -15 9 -15 4 0 8 7 8 15 0 8 -4 15 -8 15 -5 0 -9
-7 -9 -15z"/>
<path d="M4161 2544 c0 -11 3 -14 6 -6 3 7 2 16 -1 19 -3 4 -6 -2 -5 -13z"/>
<path d="M2606 2505 c-14 -21 -14 -25 -2 -25 18 0 40 36 27 44 -5 3 -16 -5
-25 -19z"/>
<path d="M2564 2448 c-18 -21 -18 -21 0 -15 13 5 17 3 13 -6 -4 -10 2 -13 19
-9 17 3 24 11 24 28 0 31 -30 32 -56 2z m36 2 c0 -5 -2 -10 -4 -10 -3 0 -8 5
-11 10 -3 6 -1 10 4 10 6 0 11 -4 11 -10z"/>
<path d="M2660 2450 c0 -5 5 -10 10 -10 6 0 10 5 10 10 0 6 -4 10 -10 10 -5 0
-10 -4 -10 -10z"/>
<path d="M2700 2450 c0 -5 5 -10 10 -10 6 0 10 5 10 10 0 6 -4 10 -10 10 -5 0
-10 -4 -10 -10z"/>
<path d="M2535 2409 c-4 -6 -5 -12 -2 -15 2 -3 7 2 10 11 7 17 1 20 -8 4z"/>
<path d="M2700 2410 c0 -5 5 -10 10 -10 6 0 10 5 10 10 0 6 -4 10 -10 10 -5 0
-10 -4 -10 -10z"/>
<path d="M4121 2404 c0 -11 3 -14 6 -6 3 7 2 16 -1 19 -3 4 -6 -2 -5 -13z"/>
<path d="M2497 2364 c-3 -3 -3 -13 0 -22 4 -9 2 -13 -4 -9 -6 4 -16 0 -23 -8
-11 -14 -10 -14 12 -6 14 5 28 8 30 5 3 -2 4 5 3 16 -1 23 -9 33 -18 24z"/>
<path d="M2537 2356 c-4 -10 -1 -13 8 -9 8 3 12 9 9 14 -7 12 -11 11 -17 -5z"/>
<path d="M4083 2330 c2 -8 -2 -32 -11 -53 -8 -21 -13 -40 -10 -42 2 -2 11 15
20 39 11 29 13 48 6 57 -8 12 -9 11 -5 -1z"/>
<path d="M2432 2277 c-6 -7 -8 -18 -4 -24 5 -7 13 -2 25 13 14 19 15 24 4 24
-8 0 -19 -6 -25 -13z"/>
<path d="M2460 2250 c0 -5 5 -10 10 -10 6 0 10 5 10 10 0 6 -4 10 -10 10 -5 0
-10 -4 -10 -10z"/>
<path d="M2385 2220 c-3 -5 -1 -10 4 -10 6 0 11 5 11 10 0 6 -2 10 -4 10 -3 0
-8 -4 -11 -10z"/>
<path d="M4036 2195 c-9 -26 -7 -32 5 -12 6 10 9 21 6 23 -2 3 -7 -2 -11 -11z"/>
<path d="M2365 2191 c-6 -11 9 -23 19 -14 9 9 7 23 -3 23 -6 0 -12 -4 -16 -9z"/>
<path d="M2320 2135 c-13 -14 -18 -25 -12 -25 7 0 12 5 12 11 0 5 4 8 9 5 5
-3 14 1 20 8 21 26 -6 26 -29 1z"/>
<path d="M2282 2088 c-7 -7 -11 -21 -11 -32 1 -18 2 -18 6 -3 2 9 9 14 15 10
8 -4 9 0 5 13 -7 18 -7 18 7 0 14 -18 15 -18 13 3 -1 23 -17 27 -35 9z"/>
<path d="M3943 2028 c3 -10 2 -20 -3 -23 -6 -4 -10 -11 -10 -18 0 -6 7 -1 16
12 13 18 14 25 4 34 -10 9 -12 8 -7 -5z"/>
<path d="M2220 1991 c0 -6 4 -13 10 -16 6 -3 7 1 4 9 -7 18 -14 21 -14 7z"/>
<path d="M2191 1977 c-8 -10 -7 -14 2 -14 8 0 14 6 14 14 0 7 -1 13 -2 13 -2
0 -8 -6 -14 -13z"/>
<path d="M3905 1949 c-4 -6 -5 -12 -2 -15 2 -3 7 2 10 11 7 17 1 20 -8 4z"/>
<path d="M2154 1928 c-15 -18 -16 -20 -2 -9 10 7 25 11 33 7 9 -3 15 0 15 9 0
22 -24 18 -46 -7z"/>
<path d="M3876 1904 c-9 -24 -2 -26 12 -4 7 11 8 20 3 20 -5 0 -12 -7 -15 -16z"/>
<path d="M2140 1889 c0 -5 -4 -8 -9 -5 -4 3 -16 -3 -25 -13 -26 -29 0 -38 30
-10 25 24 31 39 14 39 -5 0 -10 -5 -10 -11z"/>
<path d="M2140 1850 c0 -5 5 -10 10 -10 6 0 10 5 10 10 0 6 -4 10 -10 10 -5 0
-10 -4 -10 -10z"/>
<path d="M3761 1823 c0 -10 4 -27 9 -38 7 -16 9 -13 9 18 1 20 -3 37 -9 37 -5
0 -10 -8 -9 -17z"/>
<path d="M2062 1818 c-16 -16 -15 -25 2 -25 8 0 17 9 19 19 6 21 -4 23 -21 6z"/>
<path d="M3795 1789 c-4 -6 -5 -12 -2 -15 2 -3 7 2 10 11 7 17 1 20 -8 4z"/>
<path d="M2017 1762 c-10 -10 -17 -24 -17 -31 0 -7 -4 -9 -10 -6 -11 7 -14 -8
-4 -18 6 -5 64 58 64 69 0 10 -19 2 -33 -14z"/>
<path d="M2060 1720 c0 -22 -4 -40 -8 -40 -4 0 -9 -13 -10 -30 -3 -33 3 -37
24 -16 16 17 20 126 4 126 -5 0 -10 -18 -10 -40z"/>
<path d="M1936 1669 c-14 -17 -26 -37 -26 -45 0 -9 -4 -13 -9 -9 -5 3 -13 0
-17 -7 -13 -21 -11 -48 3 -48 7 0 13 8 13 18 0 23 19 42 41 42 11 0 17 7 16
20 -1 18 -2 18 -21 2 -24 -21 -13 2 17 36 11 12 18 22 15 22 -4 0 -18 -14 -32
-31z"/>
<path d="M1984 1668 c-4 -7 -3 -8 4 -4 7 4 12 1 12 -8 0 -9 4 -16 9 -16 6 0 9
9 8 20 -1 22 -22 27 -33 8z"/>
<path d="M3686 1664 c1 -6 -3 -18 -9 -25 -7 -7 -2 -5 11 5 12 11 22 24 22 30
0 6 -4 5 -9 -3 -5 -7 -11 -9 -13 -5 -3 5 -4 4 -2 -2z"/>
<path d="M3603 1588 c2 -7 -7 -26 -22 -43 l-26 -30 32 29 c17 16 29 34 26 42
-3 8 -7 14 -10 14 -3 0 -3 -6 0 -12z"/>
<path d="M1830 1545 c-13 -14 -20 -25 -15 -25 5 0 0 -6 -11 -14 -10 -8 -19
-20 -19 -28 -1 -7 -6 -12 -12 -11 -7 2 -21 -10 -32 -25 -11 -15 -33 -39 -48
-54 -14 -15 -28 -36 -30 -48 -3 -20 0 -19 26 9 17 18 33 41 36 52 4 10 10 17
15 14 5 -3 7 -12 3 -20 -3 -8 0 -15 6 -15 14 0 14 23 0 37 -17 17 -3 31 27 27
23 -2 25 1 21 22 -2 13 0 27 5 30 4 3 8 2 7 -3 -3 -19 2 -33 12 -33 6 0 8 7 5
16 -4 9 -2 13 5 8 7 -4 9 0 5 12 -3 11 1 31 9 47 17 33 15 34 -15 2z"/>
<path d="M1857 1505 c-4 -8 -2 -17 3 -20 6 -4 10 -4 10 -1 0 2 3 11 6 20 3 9
2 16 -4 16 -5 0 -12 -7 -15 -15z"/>
<path d="M1860 1450 c0 -5 5 -10 10 -10 6 0 10 5 10 10 0 6 -4 10 -10 10 -5 0
-10 -4 -10 -10z"/>
<path d="M3443 1425 c0 -8 4 -12 9 -9 5 3 6 10 3 15 -9 13 -12 11 -12 -6z"/>
<path d="M3363 1386 c-3 -6 -3 -8 2 -4 4 4 13 3 20 -2 8 -7 12 -5 12 3 0 16
-25 18 -34 3z"/>
<path d="M1571 1255 c-27 -31 -33 -55 -15 -55 3 0 3 4 0 8 -6 11 10 37 24 37
5 0 10 4 9 9 0 5 5 12 12 17 8 4 11 11 8 14 -4 3 -21 -10 -38 -30z"/>
<path d="M1500 1175 c-19 -23 -8 -25 14 -4 11 11 15 19 9 19 -6 0 -16 -7 -23
-15z"/>
<path d="M3040 1170 c0 -6 7 -10 15 -10 8 0 15 2 15 4 0 2 -7 6 -15 10 -8 3
-15 1 -15 -4z"/>
<path d="M1445 1117 c-63 -68 -69 -77 -57 -89 6 -6 8 -24 5 -39 -4 -21 -2 -29
8 -29 19 0 41 47 25 54 -7 3 -7 5 2 5 6 1 12 6 12 12 0 7 -11 9 -27 5 -16 -3
-22 -3 -15 0 6 3 9 11 5 17 -4 6 0 8 10 4 10 -3 17 -3 17 2 0 5 10 21 22 37
18 22 32 54 25 54 -1 0 -16 -15 -32 -33z"/>
<path d="M2955 1120 c-8 -13 5 -13 25 0 13 8 13 10 -2 10 -9 0 -20 -4 -23 -10z"/>
<path d="M2845 1070 c-3 -6 1 -7 9 -4 18 7 21 14 7 14 -6 0 -13 -4 -16 -10z"/>
<path d="M2810 1060 c-9 -6 -10 -10 -3 -10 6 0 15 5 18 10 8 12 4 12 -15 0z"/>
<path d="M2640 1029 c0 -11 27 -12 34 -1 2 4 -4 9 -15 9 -10 1 -19 -2 -19 -8z"/>
<path d="M2748 1033 c7 -3 16 -2 19 1 4 3 -2 6 -13 5 -11 0 -14 -3 -6 -6z"/>
<path d="M1365 1009 c-4 -6 -3 -15 3 -21 6 -6 11 -4 15 6 7 18 -9 31 -18 15z"/>
<path d="M1545 1000 c27 -12 43 -12 25 0 -8 5 -22 9 -30 9 -10 0 -8 -3 5 -9z"/>
<path d="M2610 998 c-19 -6 -30 -12 -24 -15 7 -2 27 3 45 11 39 17 29 19 -21
4z"/>
<path d="M1326 908 c-22 -61 -25 -81 -16 -95 10 -15 10 -14 5 10 -3 18 -2 26
4 23 6 -4 8 1 6 11 -1 10 6 36 16 58 11 22 18 47 17 55 -2 8 -16 -20 -32 -62z"/>
<path d="M1635 970 c11 -5 27 -9 35 -9 13 -1 13 0 0 9 -8 5 -24 9 -35 9 l-20
0 20 -9z"/>
<path d="M2505 973 c-11 -3 -24 -9 -29 -14 -5 -4 6 -4 25 1 19 5 43 11 54 13
15 4 14 5 -5 5 -14 0 -34 -2 -45 -5z"/>
<path d="M1445 941 c-3 -12 -9 -21 -13 -21 -4 0 -8 -15 -9 -33 -2 -29 0 -28
18 17 11 27 18 51 15 53 -2 3 -7 -5 -11 -16z"/>
<path d="M1698 953 c7 -3 16 -2 19 1 4 3 -2 6 -13 5 -11 0 -14 -3 -6 -6z"/>
<path d="M1772 951 c-17 -11 9 -17 93 -25 l60 -5 -70 13 c-44 8 -63 14 -50 18
l20 6 -20 1 c-11 0 -26 -3 -33 -8z"/>
<path d="M1940 950 c0 -5 9 -10 20 -10 11 0 20 5 20 10 0 6 -9 10 -20 10 -11
0 -20 -4 -20 -10z"/>
<path d="M2000 950 c0 -11 48 -25 57 -16 4 3 -3 6 -15 6 -12 0 -22 5 -22 10 0
6 -4 10 -10 10 -5 0 -10 -4 -10 -10z"/>
<path d="M2428 953 c7 -3 16 -2 19 1 4 3 -2 6 -13 5 -11 0 -14 -3 -6 -6z"/>
<path d="M2328 933 c6 -2 18 -2 25 0 6 3 1 5 -13 5 -14 0 -19 -2 -12 -5z"/>
<path d="M2208 923 c6 -2 18 -2 25 0 6 3 1 5 -13 5 -14 0 -19 -2 -12 -5z"/>
<path d="M2103 913 c9 -2 25 -2 35 0 9 3 1 5 -18 5 -19 0 -27 -2 -17 -5z"/>
<path d="M1277 749 c-8 -34 -12 -57 -8 -53 10 11 33 105 28 111 -3 2 -11 -24
-20 -58z"/>
<path d="M1380 778 c0 -19 2 -20 10 -8 13 19 13 30 0 30 -5 0 -10 -10 -10 -22z"/>
<path d="M1360 695 c0 -14 2 -25 4 -25 2 0 6 11 8 25 3 14 1 25 -3 25 -5 0 -9
-11 -9 -25z"/>
<path d="M1271 620 c-2 -23 -3 -24 -11 -5 -8 18 -9 18 -9 -5 -1 -28 14 -58 24
-48 4 3 5 23 2 44 -2 25 -4 30 -6 14z"/>
<path d="M1320 605 c0 -19 4 -36 8 -39 5 -3 7 9 4 27 -2 22 0 28 6 19 7 -11
10 -10 16 3 3 9 6 18 6 19 0 1 -9 2 -20 3 -16 1 -20 -4 -20 -32z"/>
<path d="M1243 520 c0 -25 2 -35 4 -22 2 12 2 32 0 45 -2 12 -4 2 -4 -23z"/>
<path d="M1320 485 c0 -8 2 -15 4 -15 2 0 6 7 10 15 3 8 1 15 -4 15 -6 0 -10
-7 -10 -15z"/>
<path d="M1323 415 c0 -22 2 -30 4 -17 2 12 2 30 0 40 -3 9 -5 -1 -4 -23z"/>
<path d="M1240 333 c0 -16 3 -45 6 -65 5 -29 9 -34 19 -25 9 9 10 14 1 19 -6
4 -11 28 -10 53 0 25 -3 45 -8 45 -4 0 -8 -12 -8 -27z"/>
<path d="M1322 315 c0 -16 2 -22 5 -12 2 9 2 23 0 30 -3 6 -5 -1 -5 -18z"/>
<path d="M1280 310 c0 -5 7 -10 15 -10 8 0 15 5 15 10 0 6 -7 10 -15 10 -8 0
-15 -4 -15 -10z"/>
</g>
</svg>
